<svg width="16" height="18" viewBox="0 0 16 18" fill="none" xmlns="http://www.w3.org/2000/svg">
<path fill-rule="evenodd" clip-rule="evenodd" d="M9.75002 0.992414C11.0179 -0.275466 13.0735 -0.275466 14.3414 0.992414C15.6093 2.26029 15.6093 4.31594 14.3414 5.58382L8.01308 11.9122C7.65642 12.2689 7.4386 12.4867 7.19583 12.6761C6.90981 12.8992 6.60033 13.0904 6.27287 13.2465C5.99494 13.3789 5.70269 13.4763 5.22413 13.6358L2.99692 14.3782L2.4622 14.5565C1.98358 14.716 1.45589 14.5914 1.09915 14.2347C0.7424 13.8779 0.617832 13.3503 0.777373 12.8716L1.69801 10.1097C1.8575 9.63115 1.9549 9.3389 2.08736 9.06097C2.24342 8.73351 2.43469 8.42403 2.65778 8.13801C2.84714 7.89524 3.06498 7.67742 3.42169 7.32075L9.75002 0.992414ZM2.96809 13.0702L2.26362 12.3658L2.87064 10.5447C3.04737 10.0145 3.12037 9.79891 3.21577 9.59874C3.33276 9.35324 3.47616 9.12122 3.64342 8.90678C3.77979 8.73194 3.93997 8.57024 4.33516 8.17504L9.24431 3.2659C9.44694 3.77422 9.78979 4.38774 10.3679 4.9659C10.9461 5.54405 11.5596 5.8869 12.0679 6.08953L7.15879 10.9987C6.7636 11.3939 6.6019 11.554 6.42706 11.6904C6.21262 11.8577 5.9806 12.0011 5.7351 12.1181C5.53493 12.2135 5.31935 12.2865 4.78915 12.4632L2.96809 13.0702ZM13.064 5.09351C12.9608 5.07086 12.8317 5.03677 12.6851 4.98588C12.2817 4.84594 11.7511 4.58132 11.2518 4.08201C10.7525 3.5827 10.4879 3.05213 10.348 2.64878C10.2971 2.50209 10.263 2.37306 10.2403 2.26987L10.6339 1.8763C11.4136 1.09657 12.6778 1.09657 13.4575 1.8763C14.2373 2.65602 14.2373 3.92021 13.4575 4.69993L13.064 5.09351ZM0.709001 17.3332C0.709001 16.988 0.988823 16.7082 1.334 16.7082H14.6673V17.9582H1.334C0.988823 17.9582 0.709001 17.6783 0.709001 17.3332Z" fill="#667085"/>
</svg>
