<svg width="22" height="23" viewBox="0 0 22 23" fill="none" xmlns="http://www.w3.org/2000/svg">
<path d="M8.44661 14.6786C8.11385 14.4319 7.64413 14.5018 7.39748 14.8345C7.15082 15.1673 7.22062 15.637 7.55339 15.8837C8.5258 16.6044 9.71503 17.0311 11 17.0311C12.285 17.0311 13.4742 16.6044 14.4466 15.8837C14.7794 15.637 14.8492 15.1673 14.6025 14.8345C14.3559 14.5018 13.8862 14.4319 13.5534 14.6786C12.825 15.2185 11.9459 15.5311 11 15.5311C10.0541 15.5311 9.17495 15.2185 8.44661 14.6786Z" fill="#1D2939"/>
<path fill-rule="evenodd" clip-rule="evenodd" d="M11 0.531128C10.2919 0.531128 9.64853 0.733948 8.95055 1.07337C8.27585 1.40147 7.49642 1.88522 6.52286 2.48945L4.45628 3.77203C3.53509 4.34374 2.79744 4.80153 2.2289 5.23694C1.64015 5.68782 1.18795 6.14702 0.86131 6.74376C0.535355 7.33925 0.388567 7.97287 0.31819 8.72183C0.249986 9.44767 0.249992 10.3352 0.25 11.4484V13.061C0.249986 14.9649 0.249975 16.4677 0.402703 17.6427C0.559372 18.8481 0.888563 19.8212 1.63236 20.5906C2.37958 21.3635 3.33046 21.7088 4.50761 21.8725C5.64849 22.0312 7.10556 22.0311 8.94185 22.0311H13.0581C14.8944 22.0311 16.3515 22.0312 17.4924 21.8725C18.6695 21.7088 19.6204 21.3635 20.3676 20.5906C21.1114 19.8212 21.4406 18.8481 21.5973 17.6427C21.75 16.4677 21.75 14.9649 21.75 13.061V11.4483C21.75 10.3353 21.75 9.44765 21.6818 8.72183C21.6114 7.97287 21.4646 7.33925 21.1387 6.74376C20.8121 6.14702 20.3599 5.68782 19.7711 5.23694C19.2026 4.80153 18.4649 4.34375 17.5437 3.77204L15.4771 2.48944C14.5036 1.88522 13.7241 1.40147 13.0494 1.07337C12.3515 0.733947 11.7081 0.531128 11 0.531128ZM7.27953 3.78525C8.29529 3.15484 9.0095 2.71266 9.60654 2.42232C10.1882 2.13945 10.6002 2.03113 11 2.03113C11.3998 2.03113 11.8118 2.13945 12.3935 2.42232C12.9905 2.71266 13.7047 3.15483 14.7205 3.78524L16.7205 5.0265C17.6813 5.62282 18.3559 6.04248 18.8591 6.42783C19.3487 6.80277 19.6303 7.11219 19.8229 7.46398C20.0162 7.81702 20.129 8.22978 20.1884 8.86216C20.2492 9.50972 20.25 10.3269 20.25 11.485V13.0061C20.25 14.977 20.2485 16.3823 20.1098 17.4494C19.9736 18.4975 19.717 19.1055 19.2892 19.548C18.8649 19.9869 18.2871 20.2475 17.2858 20.3868C16.2602 20.5294 14.9075 20.5311 13 20.5311H9C7.09247 20.5311 5.73983 20.5294 4.71422 20.3868C3.71286 20.2475 3.13514 19.9869 2.71079 19.548C2.28301 19.1055 2.02642 18.4975 1.89019 17.4494C1.75149 16.3823 1.75 14.977 1.75 13.0061V11.485C1.75 10.3269 1.75076 9.50972 1.81161 8.86216C1.87103 8.22978 1.98385 7.81702 2.17709 7.46398C2.36965 7.11219 2.65133 6.80277 3.14092 6.42783C3.6441 6.04248 4.31869 5.62282 5.27953 5.0265L7.27953 3.78525Z" fill="#1D2939"/>
</svg>
