<svg width="122" height="44" viewBox="0 0 122 44" fill="none" xmlns="http://www.w3.org/2000/svg">
<g clip-path="url(#clip0_12_29882)">
<path d="M97.2164 21.3157C98.2853 21.169 99.3333 20.8965 100.318 20.4354C103.525 18.9473 104.007 15.0069 101.178 12.8481C99.4171 11.4858 97.3002 11.1714 95.1414 11.1504C89.4824 11.1294 83.8233 11.1504 78.1643 11.1714C77.263 11.1714 76.76 11.1085 76.3199 9.99764C74.4335 5.26082 70.9333 2.13788 66.0288 0.64976C65.6725 0.544963 65.3162 0.398248 64.918 0.272492C65.0647 1.97738e-05 65.2952 0.125776 65.4629 0.125776C74.7898 0.125776 84.1168 0.0838572 93.4437 0.146735C98.8931 0.188654 104.112 1.23662 108.933 3.9823C113.9 6.81182 116.688 10.9408 116.646 16.7256C116.604 22.4685 113.523 26.3879 108.765 29.1755C108.22 29.4899 107.675 29.8042 107.088 30.0138C106.187 30.3282 106.292 30.6217 106.942 31.1456C110.882 34.3943 114.78 37.643 118.7 40.9127C119.37 41.4786 120.041 42.0445 120.691 42.6104C120.544 43.3859 119.936 43.0715 119.517 43.0715C113.732 43.0925 107.927 43.0925 102.142 43.0925C98.1386 39.7809 94.1144 36.4903 90.1321 33.1577C89.6081 32.7176 89.1051 32.5499 88.4344 32.5499C84.4102 32.5709 80.4069 32.5709 76.236 32.5709C77.8289 28.4838 76.8019 25.0045 74.0143 21.9445C74.3497 21.5043 74.8527 21.672 75.2719 21.672C81.9789 21.651 88.6649 21.672 95.3719 21.651C95.9588 21.6091 96.6505 21.8397 97.2164 21.3157Z" fill="#287EFA"/>
<path d="M0.699219 11.1501C2.92091 8.25773 5.14261 5.67973 6.98703 2.87117C8.45419 0.649481 10.1519 -0.0212184 12.7928 -0.00025902C26.1649 0.146457 39.5579 0.0626191 52.93 0.0626191C57.6249 0.0626191 62.194 0.712359 66.4488 2.82926C69.6346 4.40121 72.2126 6.6229 73.6797 9.95544C74.2247 11.1711 74.2037 11.1711 72.9252 11.1711C59.5112 11.1711 46.0972 11.1711 32.6832 11.1501C31.7191 11.1501 31.4885 11.4016 31.4885 12.3448C31.5305 22.0909 31.4885 31.837 31.5305 41.5831C31.5305 42.5263 31.2789 42.7359 30.3777 42.7149C26.6679 42.6521 22.979 42.673 19.2692 42.7149C18.4308 42.7359 18.2422 42.4634 18.2422 41.667C18.2632 31.9209 18.2422 22.1748 18.2841 12.4286C18.2841 11.3388 17.9697 11.1292 16.9427 11.1292C11.9125 11.192 6.88223 11.1501 1.85198 11.1501C1.57951 11.1501 1.28608 11.1501 0.699219 11.1501Z" fill="#455258"/>
<path d="M47.0814 42.6522C43.0572 42.6522 39.7037 42.6312 36.3502 42.6732C35.7005 42.6732 35.428 42.5264 35.4489 41.8138C35.4909 38.7328 35.4909 35.6727 35.4489 32.5917C35.428 31.8162 35.7005 31.6695 36.4131 31.6904C42.4494 31.7114 48.5066 31.7114 54.5429 31.7114C56.3245 31.7114 58.106 31.5228 59.8037 30.9149C60.5163 30.6634 61.2709 30.349 61.2499 29.4688C61.229 28.5465 60.4535 28.2321 59.7199 27.9597C57.4982 27.1842 55.1927 27.2051 52.8871 27.2051C47.5006 27.1842 42.135 27.2051 36.7484 27.2471C35.7214 27.268 35.407 26.9955 35.4489 25.9266C35.5328 23.0552 35.5328 20.2047 35.4489 17.3333C35.428 16.3272 35.7633 16.1386 36.6855 16.1596C42.4913 16.2015 48.2761 16.1805 54.0818 16.1805C55.7795 16.1805 57.4353 16.0548 58.9025 15.0906C59.1959 14.902 59.5103 14.9439 59.8247 14.9439C64.3729 14.9439 68.9001 14.9649 73.4483 14.9229C74.4334 14.902 74.4334 15.2793 74.2447 16.0128C73.7417 17.9621 72.7566 19.6178 71.3523 21.0221C70.9122 21.4623 70.8074 21.6928 71.3104 22.2378C75.6909 26.8069 75.5861 32.3192 71.1008 36.8045C67.8731 40.0113 63.786 41.4156 59.4265 42.212C55.0669 42.9666 50.7283 42.5055 47.0814 42.6522Z" fill="#287EFA"/>
<path d="M97.2176 21.3156C96.6726 21.8605 95.96 21.609 95.3522 21.609C88.6452 21.6299 81.9592 21.6299 75.2522 21.6299C74.812 21.6299 74.3299 21.4623 73.9946 21.9024C73.785 21.7557 73.5335 21.5671 73.9736 21.4413C74.2251 21.3784 74.5186 21.4203 74.812 21.4203C80.7435 21.4203 86.696 21.4203 92.6275 21.4203C94.1575 21.4203 95.6875 21.3575 97.2176 21.3156Z" fill="#9D9E9E"/>
<path d="M102.102 43.0715C107.886 43.0715 113.692 43.0715 119.477 43.0506C119.896 43.0506 120.504 43.365 120.651 42.5895C120.923 42.6733 121.133 42.841 121.279 43.0925C121.175 43.365 120.923 43.2602 120.734 43.2602C114.803 43.2602 108.892 43.2602 102.961 43.2602C102.688 43.2602 102.353 43.365 102.102 43.0715Z" fill="#9D9E9E"/>
</g>
<defs>
<clipPath id="clip0_12_29882">
<rect width="120.6" height="43.2811" fill="white" transform="translate(0.699219)"/>
</clipPath>
</defs>
</svg>
