<svg width="24" height="22" viewBox="0 0 24 22" fill="none" xmlns="http://www.w3.org/2000/svg">
<path fill-rule="evenodd" clip-rule="evenodd" d="M12 0.531128C9.37665 0.531128 7.25 2.65778 7.25 5.28113C7.25 7.90448 9.37665 10.0311 12 10.0311C14.6234 10.0311 16.75 7.90448 16.75 5.28113C16.75 2.65778 14.6234 0.531128 12 0.531128ZM8.75 5.28113C8.75 3.4862 10.2051 2.03113 12 2.03113C13.7949 2.03113 15.25 3.4862 15.25 5.28113C15.25 7.07605 13.7949 8.53113 12 8.53113C10.2051 8.53113 8.75 7.07605 8.75 5.28113Z" fill="#98A2B3"/>
<path d="M18 2.53113C17.5858 2.53113 17.25 2.86691 17.25 3.28113C17.25 3.69534 17.5858 4.03113 18 4.03113C19.3765 4.03113 20.25 4.93686 20.25 5.78113C20.25 6.6254 19.3765 7.53113 18 7.53113C17.5858 7.53113 17.25 7.86691 17.25 8.28113C17.25 8.69534 17.5858 9.03113 18 9.03113C19.9372 9.03113 21.75 7.69828 21.75 5.78113C21.75 3.86397 19.9372 2.53113 18 2.53113Z" fill="#98A2B3"/>
<path d="M6.75 3.28113C6.75 2.86691 6.41421 2.53113 6 2.53113C4.06278 2.53113 2.25 3.86397 2.25 5.78113C2.25 7.69828 4.06278 9.03113 6 9.03113C6.41421 9.03113 6.75 8.69534 6.75 8.28113C6.75 7.86691 6.41421 7.53113 6 7.53113C4.62351 7.53113 3.75 6.6254 3.75 5.78113C3.75 4.93686 4.62351 4.03113 6 4.03113C6.41421 4.03113 6.75 3.69534 6.75 3.28113Z" fill="#98A2B3"/>
<path fill-rule="evenodd" clip-rule="evenodd" d="M12 11.5311C10.2157 11.5311 8.56645 12.0119 7.34133 12.8287C6.12146 13.6419 5.25 14.8478 5.25 16.2811C5.25 17.7145 6.12146 18.9203 7.34133 19.7336C8.56645 20.5503 10.2157 21.0311 12 21.0311C13.7843 21.0311 15.4335 20.5503 16.6587 19.7336C17.8785 18.9203 18.75 17.7145 18.75 16.2811C18.75 14.8478 17.8785 13.6419 16.6587 12.8287C15.4335 12.0119 13.7843 11.5311 12 11.5311ZM6.75 16.2811C6.75 15.5053 7.22169 14.7112 8.17338 14.0767C9.11984 13.4458 10.4706 13.0311 12 13.0311C13.5294 13.0311 14.8802 13.4458 15.8266 14.0767C16.7783 14.7112 17.25 15.5053 17.25 16.2811C17.25 17.0569 16.7783 17.8511 15.8266 18.4855C14.8802 19.1165 13.5294 19.5311 12 19.5311C10.4706 19.5311 9.11984 19.1165 8.17338 18.4855C7.22169 17.8511 6.75 17.0569 6.75 16.2811Z" fill="#98A2B3"/>
<path d="M19.2674 13.1205C19.3561 12.7159 19.7561 12.4598 20.1607 12.5485C21.1225 12.7595 21.9893 13.1405 22.6328 13.6671C23.2758 14.1932 23.75 14.9164 23.75 15.7811C23.75 16.6459 23.2758 17.3691 22.6328 17.8952C21.9893 18.4218 21.1225 18.8028 20.1607 19.0137C19.7561 19.1024 19.3561 18.8464 19.2674 18.4418C19.1787 18.0372 19.4347 17.6373 19.8393 17.5485C20.6317 17.3748 21.2649 17.0763 21.6829 16.7343C22.1014 16.3919 22.25 16.0574 22.25 15.7811C22.25 15.5048 22.1014 15.1704 21.6829 14.8279C21.2649 14.4859 20.6317 14.1875 19.8393 14.0137C19.4347 13.925 19.1787 13.5251 19.2674 13.1205Z" fill="#98A2B3"/>
<path d="M3.83935 12.5485C4.24395 12.4598 4.64387 12.7159 4.73259 13.1205C4.82132 13.5251 4.56525 13.925 4.16065 14.0137C3.36829 14.1875 2.73505 14.4859 2.31712 14.8279C1.89863 15.1704 1.75 15.5048 1.75 15.7811C1.75 16.0574 1.89863 16.3919 2.31712 16.7343C2.73505 17.0763 3.36829 17.3748 4.16065 17.5485C4.56525 17.6373 4.82132 18.0372 4.73259 18.4418C4.64387 18.8464 4.24395 19.1024 3.83935 19.0137C2.87746 18.8028 2.0107 18.4218 1.36719 17.8952C0.724248 17.3691 0.25 16.6459 0.25 15.7811C0.25 14.9164 0.724248 14.1932 1.36719 13.6671C2.0107 13.1405 2.87746 12.7595 3.83935 12.5485Z" fill="#98A2B3"/>
</svg>
