<svg width="20" height="20" viewBox="0 0 20 20" fill="none" xmlns="http://www.w3.org/2000/svg">
<path fill-rule="evenodd" clip-rule="evenodd" d="M4.2634 6.45975C4.60781 6.43679 4.90563 6.69738 4.92859 7.04179L5.31187 12.7911C5.38676 13.9143 5.44011 14.6958 5.55725 15.2838C5.67088 15.8542 5.82949 16.1561 6.05733 16.3692C6.28518 16.5824 6.59697 16.7206 7.17364 16.796C7.76815 16.8738 8.55148 16.875 9.67718 16.875H10.3217C11.4474 16.875 12.2307 16.8738 12.8252 16.796C13.4019 16.7206 13.7137 16.5824 13.9415 16.3692C14.1694 16.1561 14.328 15.8542 14.4416 15.2838C14.5587 14.6958 14.6121 13.9143 14.687 12.7911L15.0702 7.04179C15.0932 6.69738 15.391 6.43679 15.7354 6.45975C16.0799 6.48271 16.3404 6.78053 16.3175 7.12494L15.9313 12.9181C15.86 13.987 15.8025 14.8505 15.6675 15.528C15.5272 16.2324 15.2885 16.8208 14.7955 17.2821C14.3025 17.7433 13.6995 17.9423 12.9873 18.0355C12.3023 18.1251 11.4369 18.125 10.3656 18.125H9.63324C8.56191 18.125 7.69655 18.1251 7.01151 18.0355C6.2993 17.9423 5.69635 17.7433 5.20335 17.2821C4.71036 16.8208 4.47167 16.2324 4.33134 15.528C4.19636 14.8505 4.13881 13.987 4.06757 12.9181L3.68136 7.12494C3.6584 6.78053 3.91899 6.48271 4.2634 6.45975Z" fill="#667085"/>
<path fill-rule="evenodd" clip-rule="evenodd" d="M8.6288 1.87503L8.59049 1.87502C8.41016 1.8749 8.25306 1.8748 8.10471 1.89849C7.51862 1.99208 7.01146 2.35762 6.73734 2.88403C6.66795 3.01728 6.61836 3.16636 6.56145 3.33747L6.54935 3.37382L6.46844 3.61654C6.45262 3.66401 6.44821 3.67709 6.44437 3.6877C6.29844 4.09113 5.92009 4.36383 5.49121 4.3747C5.47993 4.37498 5.46612 4.37503 5.41609 4.37503H2.91602C2.57084 4.37503 2.29102 4.65485 2.29102 5.00003C2.29102 5.34521 2.57084 5.62503 2.91602 5.62503L5.42322 5.62503L5.43717 5.62503H14.5617L14.5756 5.62503L17.0828 5.62503C17.4279 5.62503 17.7078 5.34521 17.7078 5.00003C17.7078 4.65485 17.4279 4.37503 17.0828 4.37503H14.5828C14.5327 4.37503 14.5189 4.37498 14.5076 4.3747C14.0788 4.36383 13.7004 4.09111 13.5545 3.68768C13.5507 3.67715 13.5461 3.66378 13.5304 3.61654L13.4495 3.37382L13.4374 3.33745C13.3805 3.16634 13.3309 3.01727 13.2615 2.88403C12.9874 2.35762 12.4802 1.99208 11.8941 1.89849C11.7458 1.8748 11.5887 1.8749 11.4084 1.87502L11.37 1.87503H8.6288ZM7.61983 4.1129C7.5871 4.20337 7.54907 4.29085 7.50614 4.37503H12.4927C12.4498 4.29085 12.4117 4.20338 12.379 4.11292L12.3468 4.01846L12.2636 3.7691C12.1877 3.54117 12.1702 3.49469 12.1528 3.46137C12.0614 3.2859 11.8924 3.16405 11.697 3.13285C11.6599 3.12693 11.6103 3.12503 11.37 3.12503H8.6288C8.38854 3.12503 8.33892 3.12693 8.30181 3.13285C8.10645 3.16405 7.9374 3.2859 7.84602 3.46137C7.82867 3.49469 7.81118 3.54118 7.7352 3.7691L7.65203 4.01861C7.63951 4.05619 7.62977 4.08543 7.61983 4.1129Z" fill="#667085"/>
</svg>
